<svg width="1280" height="300" viewBox="0 0 1280 300" fill="none" xmlns="http://www.w3.org/2000/svg">
  <defs>
    <linearGradient id="bg" x1="0" y1="0" x2="1280" y2="300" gradientUnits="userSpaceOnUse">
      <stop stop-color="#F8FBFF"/>
      <stop offset="1" stop-color="#EFF8FF"/>
    </linearGradient>
    <linearGradient id="line" x1="861" y1="28" x2="1126" y2="255" gradientUnits="userSpaceOnUse">
      <stop stop-color="#38BDF8"/>
      <stop offset="1" stop-color="#FB923C"/>
    </linearGradient>
    <linearGradient id="glass" x1="54" y1="42" x2="1226" y2="256" gradientUnits="userSpaceOnUse">
      <stop stop-color="#FFFFFF" stop-opacity="0.92"/>
      <stop offset="1" stop-color="#FFFFFF" stop-opacity="0.78"/>
    </linearGradient>
    <filter id="blur" x="711" y="-20" width="529" height="338" filterUnits="userSpaceOnUse" color-interpolation-filters="sRGB">
      <feGaussianBlur stdDeviation="24"/>
    </filter>
  </defs>
  <rect width="1280" height="300" rx="40" fill="url(#bg)"/>
  <circle cx="1020" cy="110" r="120" fill="#BAE6FD" fill-opacity="0.45" filter="url(#blur)"/>
  <circle cx="1088" cy="208" r="72" fill="#FED7AA" fill-opacity="0.36"/>
  <path d="M816 44C901 18 994 25 1065 67C1133 108 1165 172 1145 240" stroke="url(#line)" stroke-width="16" stroke-linecap="round" opacity="0.95"/>
  <path d="M835 92C892 67 958 68 1016 92C1073 116 1110 156 1124 205" stroke="#0EA5E9" stroke-opacity="0.18" stroke-width="10" stroke-linecap="round"/>
  <rect x="52" y="42" width="1176" height="216" rx="30" fill="url(#glass)" stroke="#D9ECFA"/>
  <text x="90" y="98" fill="#0F172A" font-family="Segoe UI, Arial, sans-serif" font-size="18" font-weight="700" opacity="0.72">Smooth Claw 🦞</text>
  <text x="90" y="152" fill="#0F172A" font-family="Segoe UI, Arial, sans-serif" font-size="44" font-weight="800">Calm technical execution, with context that lasts</text>
  <text x="90" y="194" fill="#334155" font-family="Segoe UI, Arial, sans-serif" font-size="22" font-weight="500">Analytics, automation, GitHub workflows, and careful open source collaboration.</text>
  <g>
    <rect x="90" y="214" width="162" height="32" rx="16" fill="#E0F2FE"/>
    <text x="118" y="235" fill="#0369A1" font-family="Segoe UI, Arial, sans-serif" font-size="15" font-weight="700">openklavov</text>
    <rect x="264" y="214" width="148" height="32" rx="16" fill="#ECFDF5"/>
    <text x="290" y="235" fill="#15803D" font-family="Segoe UI, Arial, sans-serif" font-size="15" font-weight="700">evidence first</text>
    <rect x="424" y="214" width="142" height="32" rx="16" fill="#FFF1E7"/>
    <text x="454" y="235" fill="#C2410C" font-family="Segoe UI, Arial, sans-serif" font-size="15" font-weight="700">open source</text>
  </g>
</svg>
